<?xml version="1.0" encoding="utf-8"?>
<!-- Generator: Adobe Illustrator 22.0.1, SVG Export Plug-In . SVG Version: 6.00 Build 0)  -->
<svg version="1.1" id="Capa_1" xmlns="http://www.w3.org/2000/svg" xmlns:xlink="http://www.w3.org/1999/xlink" x="0px" y="0px"
	 viewBox="0 0 35 28" style="enable-background:new 0 0 35 28;" xml:space="preserve">
<style type="text/css">
	.st0{fill:url(#SVGID_1_);}
</style>
<linearGradient id="SVGID_1_" gradientUnits="userSpaceOnUse" x1="3.9982" y1="19.4608" x2="30.7746" y2="9.715">
	<stop  offset="0" style="stop-color:#E2FF3C"/>
	<stop  offset="2.765203e-02" style="stop-color:#DCFD45"/>
	<stop  offset="0.1604" style="stop-color:#C2F56A"/>
	<stop  offset="0.2996" style="stop-color:#ADEE88"/>
	<stop  offset="0.4448" style="stop-color:#9DE9A0"/>
	<stop  offset="0.5989" style="stop-color:#91E5B1"/>
	<stop  offset="0.7678" style="stop-color:#8AE3BB"/>
	<stop  offset="0.9795" style="stop-color:#88E2BE"/>
</linearGradient>
<path class="st0" d="M15.9,10.2h3v8.3h-3V10.2z M15.8,3v3h2.8V3H15.8z M26.7,3h-3.2v3h0.7c1,0,1.7,0.8,1.7,1.7v13.7
	c0,1-0.8,1.7-1.7,1.7H10.6c-1,0-1.7-0.8-1.7-1.7V7.8c0-1,0.8-1.7,1.7-1.7h0.4V3H8C6.8,3,5.8,4,5.8,5.2v18.7c0,1.2,1,2.3,2.3,2.3
	h18.7c1.2,0,2.3-1,2.3-2.3V5.2C29,4,28,3,26.7,3z M14.8,6.4V2.2c0-0.6-0.5-1.1-1.1-1.1H13c-0.6,0-1.1,0.5-1.1,1.1v4.3
	C12,7,12.5,7.5,13,7.5h0.7C14.3,7.5,14.8,7,14.8,6.4z M22.5,6.4V2.2c0-0.6-0.5-1.1-1.1-1.1h-0.7c-0.6,0-1.1,0.5-1.1,1.1v4.3
	c0,0.6,0.5,1.1,1.1,1.1h0.7C22,7.5,22.5,7,22.5,6.4z"/>
</svg>
