<?xml version="1.0" encoding="utf-8"?>
<!-- Generator: Adobe Illustrator 22.0.1, SVG Export Plug-In . SVG Version: 6.00 Build 0)  -->
<svg version="1.1" id="Capa_1" xmlns="http://www.w3.org/2000/svg" xmlns:xlink="http://www.w3.org/1999/xlink" x="0px" y="0px"
	 viewBox="0 0 35 28" style="enable-background:new 0 0 35 28;" xml:space="preserve">
<g>
	<path d="M15.9,10.2h3v8.3h-3V10.2z M15.8,3v3h2.8V3H15.8z M26.7,3h-3.2v3h0.7c1,0,1.7,0.8,1.7,1.7v13.7c0,1-0.8,1.7-1.7,1.7H10.6
		c-1,0-1.7-0.8-1.7-1.7V7.8c0-1,0.8-1.7,1.7-1.7h0.4V3H8C6.8,3,5.8,4,5.8,5.2v18.7c0,1.2,1,2.3,2.3,2.3h18.7c1.2,0,2.3-1,2.3-2.3
		V5.2C29,4,28,3,26.7,3z M14.8,6.4V2.2c0-0.6-0.5-1.1-1.1-1.1H13c-0.6,0-1.1,0.5-1.1,1.1v4.3C12,7,12.5,7.5,13,7.5h0.7
		C14.3,7.5,14.8,7,14.8,6.4z M22.5,6.4V2.2c0-0.6-0.5-1.1-1.1-1.1h-0.7c-0.6,0-1.1,0.5-1.1,1.1v4.3c0,0.6,0.5,1.1,1.1,1.1h0.7
		C22,7.5,22.5,7,22.5,6.4z"/>
</g>
</svg>
