<?xml version="1.0" encoding="utf-8"?>
<!-- Generator: Adobe Illustrator 22.0.1, SVG Export Plug-In . SVG Version: 6.00 Build 0)  -->
<svg version="1.1" id="Capa_1" xmlns="http://www.w3.org/2000/svg" xmlns:xlink="http://www.w3.org/1999/xlink" x="0px" y="0px"
	 viewBox="0 0 35 23" style="enable-background:new 0 0 35 23;" xml:space="preserve">
<style type="text/css">
	.st0{fill:url(#SVGID_1_);}
	.st1{fill:url(#SVGID_2_);}
</style>
<g>
	<linearGradient id="SVGID_1_" gradientUnits="userSpaceOnUse" x1="2.8985" y1="16.6449" x2="32.2891" y2="5.9477">
		<stop  offset="0" style="stop-color:#E2FF3C"/>
		<stop  offset="4.708482e-02" style="stop-color:#D7FB4C"/>
		<stop  offset="0.1676" style="stop-color:#BFF46F"/>
		<stop  offset="0.2957" style="stop-color:#ABED8C"/>
		<stop  offset="0.4318" style="stop-color:#9BE8A2"/>
		<stop  offset="0.5796" style="stop-color:#90E5B2"/>
		<stop  offset="0.7475" style="stop-color:#8AE3BB"/>
		<stop  offset="0.9795" style="stop-color:#88E2BE"/>
	</linearGradient>
	<path class="st0" d="M33.6,9.8L33.6,9.8c-5-5.9-10.4-8.9-16-8.7c-2.2,0.1-4.5,0.6-6.7,1.6C9.2,3.6,7.5,4.6,5.9,6
		c-2.8,2.3-4.4,4.6-4.4,4.7c-0.4,0.6-0.4,1.5,0.1,2.1c5,5.9,10.4,8.8,16,8.7c2.2-0.1,4.5-0.6,6.7-1.6c1.7-0.8,3.4-1.9,5-3.3
		c2.8-2.4,4.4-4.6,4.4-4.7C34.1,11.3,34.1,10.4,33.6,9.8z M27.1,14L27.1,14c-2.1,1.8-5.5,3.9-9.5,4c-4.2,0.1-8.4-2.1-12.4-6.5
		c0.6-0.7,1.6-1.8,3-3c2.1-1.8,5.5-3.9,9.5-4C21.8,4.5,26,6.6,30.1,11C29.4,11.8,28.4,12.9,27.1,14z"/>
	<linearGradient id="SVGID_2_" gradientUnits="userSpaceOnUse" x1="14.9263" y1="12.4958" x2="20.2611" y2="10.5541">
		<stop  offset="0" style="stop-color:#E2FF3C"/>
		<stop  offset="4.708482e-02" style="stop-color:#D7FB4C"/>
		<stop  offset="0.1676" style="stop-color:#BFF46F"/>
		<stop  offset="0.2957" style="stop-color:#ABED8C"/>
		<stop  offset="0.4318" style="stop-color:#9BE8A2"/>
		<stop  offset="0.5796" style="stop-color:#90E5B2"/>
		<stop  offset="0.7475" style="stop-color:#8AE3BB"/>
		<stop  offset="0.9795" style="stop-color:#88E2BE"/>
	</linearGradient>
	<rect x="16.1" y="7.4" class="st1" width="3" height="8.3"/>
</g>
</svg>
