<?xml version="1.0" encoding="utf-8"?>
<!-- Generator: Adobe Illustrator 22.0.1, SVG Export Plug-In . SVG Version: 6.00 Build 0)  -->
<svg version="1.1" id="Capa_1" xmlns="http://www.w3.org/2000/svg" xmlns:xlink="http://www.w3.org/1999/xlink" x="0px" y="0px"
	 viewBox="0 0 306 91" style="enable-background:new 0 0 306 91;" xml:space="preserve">
<style type="text/css">
	.st0{fill:none;stroke:#5B5B5B;stroke-width:3;stroke-miterlimit:10;}
	.st1{fill:#5B5B5B;}
</style>
<path class="st0" d="M265.4,79.1H41.1c-17.6,0-32-14.4-32-32l0,0c0-17.6,14.4-32,32-32h224.4c17.6,0,32,14.4,32,32l0,0
	C297.5,64.7,283.2,79.1,265.4,79.1z"/>
<g>
	<path class="st1" d="M23.4,48.5h5.2V43h1.6v5.2h5.2v1.6h-5.2v5.2h-1.6v-5.2h-5.2V48.5z"/>
	<path class="st1" d="M55.9,39.8h2v16.4h-2V39.8z"/>
	<path class="st1" d="M67.1,39.8h2.4l9.4,13.6l0,0V39.8h2v16.4h-2.4l-9.4-13.6l0,0v13.6h-2V39.8z"/>
	<path class="st1" d="M90.1,39.8h10.2v1.8h-8.2V47h7.6v1.8h-7.6v7.4h-2V39.8z"/>
	<path class="st1" d="M115.8,56.7c-1.2,0-2.4-0.2-3.4-0.6c-1-0.4-2-1-2.8-1.8c-0.8-0.8-1.4-1.6-1.8-2.8c-0.4-1-0.6-2.2-0.6-3.4
		c0-1.2,0.2-2.4,0.6-3.4c0.4-1,1-2,1.8-2.8c0.8-0.8,1.6-1.4,2.8-1.8c1-0.4,2.2-0.6,3.4-0.6c1.2,0,2.4,0.2,3.4,0.6c1,0.4,2,1,2.8,1.8
		c0.8,0.8,1.4,1.6,1.8,2.8c0.4,1,0.6,2.2,0.6,3.4c0,1.2-0.2,2.4-0.6,3.4c-0.4,1-1,2-1.8,2.8c-0.8,0.8-1.6,1.4-2.8,1.8
		C118.2,56.5,117,56.7,115.8,56.7z M115.8,54.9c1,0,1.8-0.2,2.6-0.6c0.8-0.4,1.4-0.8,2-1.4c0.6-0.6,1-1.4,1.4-2.2
		c0.4-0.8,0.4-1.8,0.4-2.6c0-1-0.2-1.8-0.4-2.6s-0.8-1.6-1.4-2.2c-0.6-0.6-1.2-1.2-2-1.4c-0.8-0.4-1.6-0.6-2.6-0.6
		c-1,0-1.8,0.2-2.6,0.6c-0.8,0.4-1.4,0.8-2,1.4c-0.6,0.6-1,1.4-1.4,2.2c-0.4,0.8-0.4,1.8-0.4,2.6c0,1,0.2,1.8,0.4,2.6
		c0.4,0.8,0.8,1.6,1.4,2.2c0.6,0.6,1.2,1.2,2,1.4C114,54.7,114.8,54.9,115.8,54.9z"/>
	<path class="st1" d="M132.6,39.8h4.2c0.8,0,1.6,0,2.4,0.2c0.8,0,1.4,0.2,2,0.6c0.6,0.4,1.2,0.8,1.6,1.4c0.4,0.6,0.6,1.4,0.6,2.4
		c0,1.2-0.4,2.2-1,3c-0.8,0.8-1.8,1.2-3,1.4l4.6,7.6h-2.4l-4.4-7.4h-2.6v7.4h-2V39.8z M134.6,47h1.8c0.6,0,1,0,1.6,0
		s1.2-0.2,1.6-0.4c0.4-0.2,0.8-0.4,1.2-0.8c0.4-0.4,0.4-0.8,0.4-1.6c0-0.6-0.2-1-0.4-1.4c-0.2-0.4-0.6-0.6-1-0.8s-0.8-0.4-1.2-0.4
		s-1,0-1.4,0h-2.6V47z"/>
	<path class="st1" d="M151.8,39.8h2.8l5.6,12.8l0,0l5.6-12.8h2.8v16.4h-2V42.4l0,0l-5.8,13.8h-1.2l-5.8-13.8l0,0v13.8h-2
		C151.8,56.3,151.8,39.8,151.8,39.8z"/>
	<path class="st1" d="M183.3,39.8h1.8l7,16.4h-2.2l-1.6-4h-8.2l-1.6,4h-2.2L183.3,39.8z M184.3,42.2L184.3,42.2l-3.4,8h6.6
		L184.3,42.2z"/>
	<path class="st1" d="M210.9,43.2c-0.4-0.6-1.2-1.2-1.8-1.4c-0.6-0.2-1.4-0.4-2.2-0.4c-1,0-1.8,0.2-2.6,0.6s-1.4,0.8-2,1.4
		c-0.6,0.6-1,1.4-1.2,2.2c-0.2,0.8-0.4,1.6-0.4,2.6c0,1,0.2,1.8,0.4,2.6c0.2,0.8,0.8,1.6,1.2,2.2s1.2,1,2,1.4s1.6,0.6,2.6,0.6
		c1,0,1.8-0.2,2.6-0.6c0.8-0.4,1.4-1,2-1.8l1.4,1.2c-0.8,1-1.6,1.8-2.6,2.2c-1,0.4-2.2,0.6-3.6,0.6c-1.2,0-2.2-0.2-3.2-0.6
		c-1-0.4-2-1-2.6-1.8c-0.6-0.8-1.4-1.6-1.8-2.8c-0.4-1-0.6-2.2-0.6-3.4c0-1.2,0.2-2.4,0.6-3.4c0.4-1,1-2,1.8-2.8
		c0.8-0.8,1.6-1.4,2.6-1.8c1-0.4,2.2-0.6,3.4-0.6s2.2,0.2,3.2,0.6c1,0.4,1.8,1,2.6,2L210.9,43.2z"/>
	<path class="st1" d="M220.9,39.8h2v16.4h-2V39.8z"/>
	<path class="st1" d="M239.6,56.7c-1.2,0-2.4-0.2-3.4-0.6c-1-0.4-2-1-2.8-1.8c-0.8-0.8-1.4-1.6-1.8-2.8c-0.4-1-0.6-2.2-0.6-3.4
		c0-1.2,0.2-2.4,0.6-3.4c0.4-1,1-2,1.8-2.8c0.8-0.8,1.6-1.4,2.8-1.8c1-0.4,2.2-0.6,3.4-0.6s2.4,0.2,3.4,0.6c1,0.4,2,1,2.8,1.8
		c0.8,0.8,1.4,1.6,1.8,2.8c0.4,1.2,0.6,2.2,0.6,3.4c0,1.2-0.2,2.4-0.6,3.4c-0.4,1-1,2-1.8,2.8c-0.8,0.8-1.6,1.4-2.8,1.8
		C242,56.5,240.8,56.7,239.6,56.7z M239.6,54.9c1,0,1.8-0.2,2.6-0.6s1.4-0.8,2-1.4c0.6-0.6,1-1.4,1.4-2.2c0.4-0.8,0.4-1.8,0.4-2.6
		c0-1-0.2-1.8-0.4-2.6c-0.2-0.8-0.8-1.6-1.4-2.2c-0.6-0.6-1.2-1.2-2-1.4c-0.8-0.4-1.6-0.6-2.6-0.6c-1,0-1.8,0.2-2.6,0.6
		c-0.8,0.4-1.4,0.8-2,1.4c-0.6,0.6-1,1.4-1.4,2.2s-0.4,1.8-0.4,2.6c0,1,0.2,1.8,0.4,2.6c0.2,0.8,0.8,1.6,1.4,2.2
		c0.6,0.6,1.2,1.2,2,1.4C237.8,54.7,238.6,54.9,239.6,54.9z M240.4,35.2h2.6l-3.4,3.4H238L240.4,35.2z"/>
	<path class="st1" d="M256.4,39.8h2.4l9.4,13.6l0,0V39.8h2v16.4h-2.4l-9.4-13.6l0,0v13.6h-2V39.8z"/>
</g>
</svg>
