<?xml version="1.0" encoding="utf-8"?>
<!-- Generator: Adobe Illustrator 22.0.1, SVG Export Plug-In . SVG Version: 6.00 Build 0)  -->
<svg version="1.1" id="Capa_1" xmlns="http://www.w3.org/2000/svg" xmlns:xlink="http://www.w3.org/1999/xlink" x="0px" y="0px"
	 viewBox="0 0 154.7 46" style="enable-background:new 0 0 154.7 46;" xml:space="preserve">
<style type="text/css">
	.st0{fill:none;stroke:#FFFFFF;stroke-miterlimit:10;}
	.st1{fill:#FFFFFF;}
</style>
<path class="st0" d="M133.3,40h-112c-8.8,0-16-7.2-16-16v0c0-8.8,7.2-16,16-16h112c8.8,0,16,7.2,16,16v0
	C149.3,32.8,142.2,40,133.3,40z"/>
<g>
	<path class="st1" d="M12.5,24.7h2.6V22h0.8v2.6h2.6v0.8h-2.6v2.6h-0.8v-2.6h-2.6V24.7z"/>
	<path class="st1" d="M28.7,20.4h1v8.2h-1V20.4z"/>
	<path class="st1" d="M34.3,20.4h1.2l4.7,6.8h0v-6.8h1v8.2H40l-4.7-6.8h0v6.8h-1V20.4z"/>
	<path class="st1" d="M45.8,20.4h5.1v0.9h-4.1V24h3.8v0.9h-3.8v3.7h-1V20.4z"/>
	<path class="st1" d="M58.6,28.8c-0.6,0-1.2-0.1-1.7-0.3c-0.5-0.2-1-0.5-1.4-0.9c-0.4-0.4-0.7-0.8-0.9-1.4c-0.2-0.5-0.3-1.1-0.3-1.7
		s0.1-1.2,0.3-1.7c0.2-0.5,0.5-1,0.9-1.4c0.4-0.4,0.8-0.7,1.4-0.9c0.5-0.2,1.1-0.3,1.7-0.3s1.2,0.1,1.7,0.3c0.5,0.2,1,0.5,1.4,0.9
		s0.7,0.8,0.9,1.4c0.2,0.5,0.3,1.1,0.3,1.7s-0.1,1.2-0.3,1.7c-0.2,0.5-0.5,1-0.9,1.4s-0.8,0.7-1.4,0.9
		C59.8,28.7,59.2,28.8,58.6,28.8z M58.6,27.9c0.5,0,0.9-0.1,1.3-0.3c0.4-0.2,0.7-0.4,1-0.7s0.5-0.7,0.7-1.1s0.2-0.9,0.2-1.3
		c0-0.5-0.1-0.9-0.2-1.3s-0.4-0.8-0.7-1.1s-0.6-0.6-1-0.7c-0.4-0.2-0.8-0.3-1.3-0.3c-0.5,0-0.9,0.1-1.3,0.3c-0.4,0.2-0.7,0.4-1,0.7
		c-0.3,0.3-0.5,0.7-0.7,1.1c-0.2,0.4-0.2,0.9-0.2,1.3c0,0.5,0.1,0.9,0.2,1.3c0.2,0.4,0.4,0.8,0.7,1.1c0.3,0.3,0.6,0.6,1,0.7
		C57.7,27.8,58.1,27.9,58.6,27.9z"/>
	<path class="st1" d="M67,20.4h2.1c0.4,0,0.8,0,1.2,0.1c0.4,0,0.7,0.1,1,0.3c0.3,0.2,0.6,0.4,0.8,0.7c0.2,0.3,0.3,0.7,0.3,1.2
		c0,0.6-0.2,1.1-0.5,1.5c-0.4,0.4-0.9,0.6-1.5,0.7l2.3,3.8h-1.2l-2.2-3.7H68v3.7h-1V20.4z M68,24h0.9c0.3,0,0.5,0,0.8,0
		c0.3,0,0.6-0.1,0.8-0.2c0.2-0.1,0.4-0.2,0.6-0.4c0.2-0.2,0.2-0.4,0.2-0.8c0-0.3-0.1-0.5-0.2-0.7c-0.1-0.2-0.3-0.3-0.5-0.4
		c-0.2-0.1-0.4-0.2-0.6-0.2s-0.5,0-0.7,0H68V24z"/>
	<path class="st1" d="M76.6,20.4h1.4l2.8,6.4h0l2.8-6.4h1.4v8.2h-1v-6.9h0l-2.9,6.9h-0.6l-2.9-6.9h0v6.9h-1V20.4z"/>
	<path class="st1" d="M92.3,20.4h0.9l3.5,8.2h-1.1l-0.8-2h-4.1l-0.8,2h-1.1L92.3,20.4z M92.8,21.6L92.8,21.6l-1.7,4h3.3L92.8,21.6z"
		/>
	<path class="st1" d="M106.1,22.1c-0.2-0.3-0.6-0.6-0.9-0.7s-0.7-0.2-1.1-0.2c-0.5,0-0.9,0.1-1.3,0.3s-0.7,0.4-1,0.7
		s-0.5,0.7-0.6,1.1s-0.2,0.8-0.2,1.3c0,0.5,0.1,0.9,0.2,1.3s0.4,0.8,0.6,1.1s0.6,0.5,1,0.7c0.4,0.2,0.8,0.3,1.3,0.3
		c0.5,0,0.9-0.1,1.3-0.3c0.4-0.2,0.7-0.5,1-0.9l0.7,0.6c-0.4,0.5-0.8,0.9-1.3,1.1s-1.1,0.3-1.8,0.3c-0.6,0-1.1-0.1-1.6-0.3
		c-0.5-0.2-1-0.5-1.3-0.9s-0.7-0.8-0.9-1.4c-0.2-0.5-0.3-1.1-0.3-1.7c0-0.6,0.1-1.2,0.3-1.7c0.2-0.5,0.5-1,0.9-1.4
		c0.4-0.4,0.8-0.7,1.3-0.9c0.5-0.2,1.1-0.3,1.7-0.3c0.6,0,1.1,0.1,1.6,0.3s0.9,0.5,1.3,1L106.1,22.1z"/>
	<path class="st1" d="M111.1,20.4h1v8.2h-1V20.4z"/>
	<path class="st1" d="M120.4,28.8c-0.6,0-1.2-0.1-1.7-0.3c-0.5-0.2-1-0.5-1.4-0.9s-0.7-0.8-0.9-1.4c-0.2-0.5-0.3-1.1-0.3-1.7
		s0.1-1.2,0.3-1.7c0.2-0.5,0.5-1,0.9-1.4s0.8-0.7,1.4-0.9c0.5-0.2,1.1-0.3,1.7-0.3c0.6,0,1.2,0.1,1.7,0.3c0.5,0.2,1,0.5,1.4,0.9
		s0.7,0.8,0.9,1.4s0.3,1.1,0.3,1.7s-0.1,1.2-0.3,1.7s-0.5,1-0.9,1.4s-0.8,0.7-1.4,0.9C121.6,28.7,121,28.8,120.4,28.8z M120.4,27.9
		c0.5,0,0.9-0.1,1.3-0.3c0.4-0.2,0.7-0.4,1-0.7s0.5-0.7,0.7-1.1s0.2-0.9,0.2-1.3c0-0.5-0.1-0.9-0.2-1.3s-0.4-0.8-0.7-1.1
		s-0.6-0.6-1-0.7c-0.4-0.2-0.8-0.3-1.3-0.3s-0.9,0.1-1.3,0.3c-0.4,0.2-0.7,0.4-1,0.7c-0.3,0.3-0.5,0.7-0.7,1.1s-0.2,0.9-0.2,1.3
		c0,0.5,0.1,0.9,0.2,1.3s0.4,0.8,0.7,1.1c0.3,0.3,0.6,0.6,1,0.7C119.5,27.8,119.9,27.9,120.4,27.9z M120.8,18.1h1.3l-1.7,1.7h-0.8
		L120.8,18.1z"/>
	<path class="st1" d="M128.8,20.4h1.2l4.7,6.8h0v-6.8h1v8.2h-1.2l-4.7-6.8h0v6.8h-1V20.4z"/>
</g>
</svg>
